<svg width="361" height="144" viewBox="0 0 361 144" fill="none" xmlns="http://www.w3.org/2000/svg">
<rect width="361" height="144" rx="35" fill="#B75400"/>
<path d="M136.661 92.84C125.965 92.84 116.613 85.112 116.613 72.176C116.613 59.24 126.301 51.456 136.605 51.456C146.685 51.456 152.677 57.392 154.469 64.336L148.141 66.464C146.965 61.648 143.269 57.784 136.605 57.784C130.053 57.784 123.501 62.544 123.501 72.176C123.501 81.472 129.885 86.4 136.661 86.4C143.325 86.4 147.133 82.144 148.477 77.664L154.637 79.68C152.845 86.4 146.797 92.84 136.661 92.84ZM177.323 64.56V71.168C176.595 71.056 175.867 71 175.195 71C170.155 71 167.859 73.912 167.859 79.008V92H161.363V64.728H167.691V69.096C168.979 66.128 172.003 64.392 175.587 64.392C176.371 64.392 177.043 64.504 177.323 64.56ZM195.576 87.016C199.608 87.016 203.192 84.048 203.192 78.336C203.192 72.68 199.608 69.768 195.576 69.768C191.6 69.768 187.96 72.68 187.96 78.336C187.96 83.992 191.6 87.016 195.576 87.016ZM195.576 63.888C203.752 63.888 209.744 69.992 209.744 78.336C209.744 86.736 203.752 92.84 195.576 92.84C187.456 92.84 181.464 86.736 181.464 78.336C181.464 69.992 187.456 63.888 195.576 63.888ZM223.582 102.64H217.142V64.728H223.414V68.424C224.758 66.072 227.894 64.112 232.094 64.112C240.158 64.112 244.694 70.272 244.694 78.336C244.694 86.512 239.71 92.672 231.87 92.672C227.95 92.672 224.982 90.992 223.582 88.92V102.64ZM238.198 78.336C238.198 73.24 235.23 69.88 230.862 69.88C226.606 69.88 223.526 73.24 223.526 78.336C223.526 83.544 226.606 86.904 230.862 86.904C235.174 86.904 238.198 83.544 238.198 78.336Z" fill="white"/>
</svg>
